# xmcd
#
# Track frame offsets:
#	150
#	19278
#	37093
#	56576
#	75502
#	94947
#	114960
#	131476
#	147211
#	167464
#	186547
#	206605
#
# Disc length: 3014 seconds
#
# Revision: 0
# Processed by: cddbd v1.5.1PL0 Copyright (c) Steve Scherf et al.
# Submitted via: dBpowerAMP V4.0
#
DISCID=a30bc40c
DTITLE=Alejandro Fernandez - canta corazon
DYEAR=2005
DGENRE=Latin
TTITLE0=1
TTITLE1=2
TTITLE2=3
TTITLE3=4
TTITLE4=5
TTITLE5=6
TTITLE6=7
TTITLE7=8
TTITLE8=9
TTITLE9=0
TTITLE10=11
TTITLE11=12
EXTD=Alejandro fernandez\n
EXTT0=
EXTT1=
EXTT2=
EXTT3=
EXTT4=
EXTT5=
EXTT6=
EXTT7=
EXTT8=
EXTT9=
EXTT10=
EXTT11=
PLAYORDER=
